<svg width="335" height="102" viewBox="0 0 335 102" fill="none" xmlns="http://www.w3.org/2000/svg">
<path d="M332.729 3.61411C332.728 3.66311 332.724 3.71209 332.719 3.76285C332.637 4.55045 332.104 5.20332 331.592 5.8054C318.782 20.9082 303.385 38.1654 288.239 50.9001C242.42 89.4298 178.464 107.282 119.338 98.4417C98.6944 95.3543 78.5247 88.7227 60.1475 78.7656C51.2115 73.9244 42.4009 67.6166 34.4317 60.9027C26.6453 54.3411 18.3694 46.1045 10.4629 38.9338C10.2748 38.764 9.96295 38.9303 9.92811 39.1823C9.52747 42.1262 5.68658 54.9799 5.30162 55.9216C3.57364 60.1536 -0.269038 59.6408 0.450373 54.6317C1.29694 48.7386 2.55637 43.978 3.96036 38.274C4.43067 36.3592 5.01071 32.2007 6.46695 30.8775C8.19145 29.311 10.7207 29.6943 13.0462 29.619C18.2841 29.4458 24.2171 28.9382 29.4724 29.4615C34.3167 29.9446 38.9449 34.6212 30.9792 34.812C25.7674 34.9363 19.9441 35.0605 14.6905 34.8908C14.4989 34.8838 14.4031 35.1166 14.5459 35.2443C17.711 38.0762 22.9995 43.4704 25.5374 46.2218C65.5422 89.5978 139.002 103.222 196.057 90.0756C207.226 87.5028 218.202 84.0758 228.85 79.8227C267.686 64.3104 302.277 32.5699 325.237 4.9775C326.359 3.62982 327.315 1.97588 328.974 1.42281C330.585 0.885489 332.771 1.95138 332.729 3.61411Z" fill="#9E77ED"/>
</svg>
