<svg width="84" height="48" viewBox="0 0 84 48" fill="none" xmlns="http://www.w3.org/2000/svg">
<path d="M36.3581 12.7401V23.9697C36.3607 27.0695 38.8767 29.5816 41.9799 29.5816C45.0832 29.5816 47.5991 27.0695 47.6018 23.9697V12.7401H53.2236V23.9738L53.2236 24.0088C53.2165 26.322 52.5096 28.4708 51.3034 30.2547C51.1979 30.4107 51.0887 30.5638 50.9757 30.7141C48.9244 33.4426 45.6585 35.2075 41.9799 35.2075C38.3014 35.2075 35.0354 33.4426 32.9841 30.7141C32.8712 30.5638 32.7619 30.4107 32.6565 30.2547C31.4502 28.4708 30.7434 26.3222 30.7363 24.009L30.7362 23.9738V12.7401H36.3581Z" fill="#6941C6"/>
<path d="M26.753 30.0717C24.7508 33.192 21.249 35.2598 17.2638 35.2598C12.3595 35.2598 8.18721 32.1282 6.64093 27.7573H12.7583V31.5085L25.7646 24.006L12.7583 16.5035V20.2548H6V6H12.7583V13.6887C14.138 13.0864 15.6618 12.7523 17.2638 12.7523C19.622 12.7523 21.811 13.4763 23.6201 14.7141C25.3902 15.9252 26.7967 17.628 27.6424 19.6256C28.1469 20.8174 28.4518 22.1141 28.5152 23.4739C28.5234 23.6502 28.5276 23.8277 28.5276 24.0061C28.5276 26.2397 27.8762 28.3213 26.753 30.0717Z" fill="#6941C6"/>
<path d="M66.7362 12.7401C60.5154 12.7401 55.4724 17.7786 55.4724 23.9938V41.9999H62.2307V34.3112C63.6104 34.9135 65.1343 35.2476 66.7362 35.2476C71.6405 35.2476 75.8128 32.116 77.359 27.7451H71.2417L71.2417 31.4964L58.2354 23.9939L71.2417 16.4914L71.2417 20.2426H77.359C75.8128 15.8717 71.6405 12.7401 66.7362 12.7401Z" fill="#6941C6"/>
</svg>
